<svg version="1.1" id="Layer_1" xmlns="http://www.w3.org/2000/svg" xmlns:xlink="http://www.w3.org/1999/xlink" x="0px" y="0px"
	 width="100%" viewBox="0 0 2000 1500" enable-background="new 0 0 2000 1500" xml:space="preserve">
<path fill="#2C2A84" opacity="1.000000" stroke="none" 
	d="
M1368.000000,1501.000000 
	C912.000122,1501.000000 456.500275,1501.000000 1.000305,1501.000000 
	C1.000204,1001.000305 1.000204,501.000580 1.000102,1.000641 
	C667.666199,1.000427 1334.332397,1.000427 2000.998901,1.000214 
	C2000.999268,500.999359 2000.999268,1000.998718 2000.999634,1500.999023 
	C1790.166626,1501.000000 1579.333374,1501.000000 1368.000000,1501.000000 
M564.851257,609.693481 
	C563.184692,609.704590 561.518066,609.721008 559.851501,609.725891 
	C552.517761,609.747437 552.379883,609.746155 552.377686,617.083069 
	C552.350952,705.916138 552.354858,794.749146 552.397156,883.582214 
	C552.400757,891.260681 552.553528,891.271118 560.032898,891.271362 
	C649.032837,891.273865 738.032837,891.273010 827.032776,891.271729 
	C828.199341,891.271729 829.608826,891.665894 830.476990,891.152466 
	C831.868225,890.329712 833.713196,889.030762 833.926331,887.702087 
	C834.475098,884.281372 834.234131,880.734009 835.194641,877.200256 
	C836.693604,877.168274 838.192383,877.116089 839.691467,877.107666 
	C847.993469,877.060730 847.998413,877.064392 847.998535,868.517029 
	C847.999695,780.208984 848.000244,691.900879 847.997192,603.592834 
	C847.996887,595.962036 847.984375,595.950867 840.270081,595.950684 
	C751.462158,595.947998 662.654297,595.948853 573.846375,595.949890 
	C572.680115,595.949890 571.510803,596.021179 570.348083,595.960449 
	C567.336060,595.803284 566.195618,597.316345 566.175720,600.194885 
	C566.153870,603.350647 565.901550,606.504883 564.851257,609.693481 
M913.062683,1167.695068 
	C828.116028,1206.360352 739.487793,1218.708618 647.328247,1204.044067 
	C557.071350,1189.682373 477.159149,1152.282104 410.805115,1089.616699 
	C288.108582,973.740662 240.246902,831.128174 269.315704,664.916077 
	C289.111267,551.727539 346.766113,459.150940 437.438904,388.824951 
	C547.832214,303.203735 673.372375,272.581177 810.138062,300.482697 
	C965.744568,332.227905 1075.587402,423.954529 1142.002686,567.956177 
	C1144.991699,574.436829 1145.572632,574.839783 1152.791260,572.862976 
	C1084.047363,398.328369 888.868469,251.631088 647.969482,288.332764 
	C420.434418,322.998413 250.229904,520.782532 252.393661,754.818542 
	C254.634232,997.164612 441.144409,1196.594116 680.341919,1216.651367 
	C908.623352,1235.793213 1088.994263,1091.935791 1152.718872,927.981140 
	C1145.018921,926.312500 1144.935547,926.373291 1141.960449,933.213013 
	C1129.838745,961.082031 1115.183472,987.547302 1097.739258,1012.437317 
	C1050.130493,1080.367188 988.869690,1132.101807 913.062683,1167.695068 
M931.820557,711.502441 
	C931.820557,706.390991 931.820557,701.279480 931.820557,695.560364 
	C953.474670,695.560364 974.530518,695.560364 995.562866,695.560364 
	C995.562866,682.547852 995.562866,670.159058 995.562866,657.897095 
	C994.890747,657.656555 994.584473,657.451538 994.277588,657.450867 
	C973.291016,657.402466 952.304138,657.328857 931.317993,657.415527 
	C929.626892,657.422485 927.787903,658.284363 926.276245,659.183594 
	C915.980103,665.309082 905.799377,671.629456 895.470276,677.697754 
	C893.011353,679.142334 892.052063,680.737671 892.069641,683.621216 
	C892.192627,703.776306 892.185547,723.932922 892.075989,744.088196 
	C892.060608,746.914307 892.856934,748.577209 895.396362,750.037109 
	C905.637207,755.924438 915.677490,762.160645 925.919739,768.045410 
	C927.953491,769.213806 930.546692,769.938660 932.888916,769.956543 
	C952.377380,770.105774 971.867432,770.047852 991.357056,770.027222 
	C992.787415,770.025757 994.217529,769.826477 995.613281,769.721741 
	C995.613281,757.067566 995.613281,744.827637 995.613281,732.004272 
	C974.253845,732.004272 953.206116,732.004272 931.820557,732.004272 
	C931.820557,725.113342 931.820557,718.807129 931.820557,711.502441 
M1309.499756,695.670349 
	C1320.922485,695.670349 1332.345215,695.670349 1343.689941,695.670349 
	C1343.689941,682.514709 1343.689941,670.122620 1343.689941,657.737610 
	C1342.855347,657.563171 1342.378662,657.376770 1341.901611,657.376221 
	C1321.251709,657.352051 1300.601440,657.297241 1279.952271,657.415039 
	C1278.100220,657.425537 1276.074829,658.262878 1274.435913,659.233154 
	C1264.272583,665.250183 1254.242310,671.492249 1244.060425,677.476868 
	C1241.495972,678.984131 1240.307983,680.609497 1240.329834,683.732239 
	C1240.470703,703.881775 1240.308838,724.033813 1240.549683,744.181519 
	C1240.572998,746.143494 1242.178833,748.839905 1243.865234,749.904907 
	C1253.848877,756.209900 1264.019775,762.226562 1274.261597,768.106995 
	C1276.290771,769.272034 1278.895996,769.926147 1281.246826,769.957153 
	C1294.400635,770.130798 1307.557983,770.041016 1320.714111,770.041138 
	C1328.329834,770.041138 1335.945557,770.041077 1343.693970,770.041077 
	C1343.693970,757.193604 1343.693970,744.835205 1343.693970,731.905518 
	C1322.294434,731.905518 1301.258423,731.905518 1280.300049,731.905518 
	C1280.300049,719.575195 1280.300049,707.821655 1280.300049,695.670349 
	C1289.902832,695.670349 1299.201172,695.670349 1309.499756,695.670349 
M1023.518433,806.996155 
	C1019.741882,806.996155 1015.965393,806.996155 1012.210815,806.996155 
	C1012.210815,819.489624 1012.210815,831.366638 1012.210815,843.357544 
	C1013.217590,843.484680 1013.861267,843.636414 1014.505066,843.637024 
	C1034.492554,843.654785 1054.480469,843.712891 1074.467041,843.578857 
	C1076.491821,843.565247 1078.690063,842.702087 1080.499146,841.684387 
	C1090.937988,835.811951 1101.237793,829.691711 1111.693848,823.850769 
	C1114.324219,822.381409 1115.441650,820.759399 1115.418457,817.638428 
	C1115.271851,797.985046 1115.284058,778.329712 1115.408081,758.676025 
	C1115.427124,755.655334 1114.551025,753.885925 1111.847778,752.361084 
	C1101.271362,746.395203 1090.891846,740.080444 1080.317017,734.111511 
	C1078.265015,732.953125 1075.671509,732.233582 1073.319092,732.211060 
	C1056.664307,732.051331 1040.007324,732.125977 1023.350952,732.125916 
	C1019.236206,732.125916 1015.121399,732.125977 1010.832214,732.125977 
	C1010.832214,745.039734 1010.832214,757.399170 1010.832214,770.151978 
	C1032.181641,770.151978 1053.122437,770.151978 1074.277832,770.151978 
	C1074.277832,782.574219 1074.277832,794.597351 1074.277832,806.996155 
	C1057.443237,806.996155 1040.977539,806.996155 1023.518433,806.996155 
M1418.346191,843.667358 
	C1423.192383,844.264038 1427.356201,842.763062 1431.512817,840.232056 
	C1440.887695,834.523865 1450.454590,829.124390 1460.043457,823.779053 
	C1462.660645,822.320068 1463.810913,820.678589 1463.787964,817.551147 
	C1463.643677,797.898926 1463.668823,778.244751 1463.767578,758.591919 
	C1463.781616,755.794556 1463.044067,754.065857 1460.472900,752.609375 
	C1449.617920,746.459961 1438.946411,739.986511 1428.091064,733.837708 
	C1426.188599,732.760132 1423.729492,732.215088 1421.521484,732.197998 
	C1404.534058,732.066162 1387.545166,732.125427 1370.556641,732.125366 
	C1366.781372,732.125366 1363.006226,732.125366 1359.156006,732.125366 
	C1359.156006,745.041748 1359.156006,757.416199 1359.156006,770.345215 
	C1380.590576,770.345215 1401.639282,770.345215 1422.553223,770.345215 
	C1422.553223,782.824097 1422.553223,794.740173 1422.553223,807.063354 
	C1401.637329,807.063354 1381.054565,807.063354 1360.269409,807.063354 
	C1360.269409,819.367676 1360.269409,831.255493 1360.269409,843.667358 
	C1379.489380,843.667358 1398.437256,843.667358 1418.346191,843.667358 
M1086.693970,662.905396 
	C1080.641357,658.138123 1073.783447,657.008362 1066.161865,657.196777 
	C1049.528320,657.607910 1032.877441,657.316589 1016.233704,657.334534 
	C1014.466980,657.336426 1012.700378,657.486145 1010.795105,657.573608 
	C1010.795105,670.439880 1010.795105,682.813965 1010.795105,695.827026 
	C1032.209717,695.827026 1053.248535,695.827026 1074.829468,695.827026 
	C1074.829468,703.397217 1074.829468,710.328979 1074.829468,717.438721 
	C1088.468994,717.438721 1101.550537,717.438721 1114.566528,717.438721 
	C1114.852051,716.754700 1115.208008,716.297180 1115.210693,715.837585 
	C1115.277588,704.522766 1115.409790,693.205872 1115.208130,681.895081 
	C1115.183960,680.536011 1113.588867,678.758179 1112.252808,677.942200 
	C1104.026367,672.917725 1095.665161,668.113647 1086.693970,662.905396 
M1406.498047,695.676208 
	C1411.781250,695.676208 1417.064331,695.676208 1422.836548,695.676208 
	C1422.836548,703.197205 1422.836548,710.124634 1422.836548,717.212280 
	C1436.694458,717.212280 1450.049194,717.212280 1463.723389,717.212280 
	C1463.723389,705.763672 1463.609253,694.774109 1463.796021,683.789734 
	C1463.848999,680.672668 1462.727661,679.009277 1460.073608,677.533447 
	C1452.220215,673.166443 1444.246704,668.922852 1436.841797,663.866760 
	C1429.187378,658.640198 1421.199585,656.870911 1411.997559,657.163147 
	C1394.531982,657.717773 1377.036377,657.323792 1359.156738,657.323792 
	C1359.156738,670.224304 1359.156738,682.773926 1359.156738,695.676147 
	C1374.865234,695.676147 1390.181885,695.676147 1406.498047,695.676208 
M1276.957031,784.741760 
	C1264.872192,784.741760 1252.787354,784.741760 1240.408325,784.741760 
	C1240.408325,796.611328 1240.265747,807.753357 1240.566406,818.883423 
	C1240.609985,820.500244 1242.443726,822.608704 1244.012817,823.556641 
	C1254.254028,829.743652 1264.594360,835.774414 1275.042358,841.605408 
	C1277.234985,842.829102 1280.006104,843.558960 1282.518677,843.580566 
	C1301.321167,843.742188 1320.125732,843.668640 1338.929565,843.668823 
	C1340.533203,843.668823 1342.136963,843.668884 1343.713135,843.668884 
	C1343.713135,831.064331 1343.713135,819.173950 1343.713135,806.928589 
	C1322.775513,806.928589 1302.183472,806.928589 1281.178711,806.928589 
	C1281.178711,800.439392 1281.092285,794.304016 1281.220337,788.173218 
	C1281.273315,785.639404 1280.491943,784.379028 1276.957031,784.741760 
M929.083130,784.743530 
	C916.845337,784.743530 904.607544,784.743530 892.136230,784.743530 
	C892.136230,796.248657 892.258728,806.902100 892.060242,817.549683 
	C892.002075,820.666138 893.161194,822.283997 895.770142,823.755127 
	C906.204285,829.638794 916.458374,835.842773 926.921814,841.672180 
	C929.116089,842.894531 931.910706,843.562378 934.436279,843.583618 
	C953.092224,843.740295 971.750183,843.675110 990.407471,843.657410 
	C992.165955,843.655762 993.924316,843.500183 995.679321,843.416199 
	C995.679321,831.050903 995.679321,819.282043 995.679321,806.928223 
	C974.730469,806.928223 954.022949,806.928223 933.009033,806.928223 
	C933.009033,800.371277 932.949890,794.397766 933.039490,788.426514 
	C933.072998,786.193970 932.960754,784.369934 929.083130,784.743530 
M1147.086670,840.141602 
	C1146.573853,843.708374 1148.870972,843.704346 1151.407104,843.693909 
	C1163.571411,843.643982 1175.736206,843.684631 1187.900757,843.650818 
	C1189.163330,843.647339 1190.425293,843.364502 1191.666382,843.213867 
	C1191.666382,828.370056 1191.666382,813.930969 1191.666382,799.360718 
	C1176.721069,799.360718 1162.032959,799.360718 1147.085083,799.360718 
	C1147.085083,812.911255 1147.085083,826.060120 1147.086670,840.141602 
z"/>
<path fill="#31C38D" opacity="1.000000" stroke="none" 
	d="
M834.308716,877.237244 
	C834.234131,880.734009 834.475098,884.281372 833.926331,887.702087 
	C833.713196,889.030762 831.868225,890.329712 830.476990,891.152466 
	C829.608826,891.665894 828.199341,891.271729 827.032776,891.271729 
	C738.032837,891.273010 649.032837,891.273865 560.032898,891.271362 
	C552.553528,891.271118 552.400757,891.260681 552.397156,883.582214 
	C552.354858,794.749146 552.350952,705.916138 552.377686,617.083069 
	C552.379883,609.746155 552.517761,609.747437 559.851501,609.725891 
	C561.518066,609.721008 563.184692,609.704590 565.783936,609.741455 
	C569.381653,609.818176 572.046814,609.872009 574.711914,609.872131 
	C658.510132,609.876648 742.308289,609.874878 826.106506,609.877441 
	C834.041565,609.877686 834.051270,609.888000 834.051514,617.856934 
	C834.054016,701.488525 834.050598,785.120178 834.063904,868.751770 
	C834.064331,871.580261 834.223450,874.408752 834.308716,877.237244 
M770.047852,757.500000 
	C770.047852,779.751038 770.047852,802.002136 770.047852,824.326477 
	C768.419739,824.561462 767.615845,824.778748 766.811768,824.779053 
	C717.984985,824.801086 669.158142,824.782837 620.331482,824.859497 
	C616.917969,824.864868 616.128845,823.368469 616.135376,820.314087 
	C616.199463,790.318176 616.216858,760.321960 616.115112,730.326233 
	C616.103210,726.818359 617.337952,725.676819 620.764771,725.734680 
	C630.094177,725.892334 639.428040,725.771606 648.760132,725.784302 
	C652.541382,725.789429 656.274841,725.153625 656.327759,720.532776 
	C656.381409,715.856506 652.622009,715.222961 648.852295,715.222534 
	C638.853638,715.221436 628.854431,715.157166 618.856384,715.238159 
	C609.607910,715.313110 605.979858,719.069092 605.973816,728.467590 
	C605.953918,759.630127 605.953674,790.792725 605.973450,821.955261 
	C605.979492,831.415466 609.537659,835.012451 618.909302,835.025269 
	C639.906555,835.053894 660.903748,835.028015 681.901001,835.049133 
	C683.820801,835.051086 685.740417,835.231995 687.501831,835.321655 
	C687.501831,842.205688 687.501831,848.425598 687.501831,854.963867 
	C685.020447,854.963867 683.032349,854.962585 681.044250,854.964050 
	C673.711914,854.969482 666.379395,854.947937 659.047302,854.994019 
	C655.585327,855.015747 653.091125,856.543823 653.103027,860.250000 
	C653.114319,863.750427 655.531189,865.095459 658.793335,865.150513 
	C659.459778,865.161804 660.126282,865.174438 660.792786,865.174500 
	C682.289978,865.175781 703.787109,865.177307 725.284302,865.171143 
	C726.449707,865.170776 727.989685,865.562317 728.706177,864.976868 
	C730.443176,863.557678 732.998779,861.646484 732.967041,859.976318 
	C732.935303,858.306396 730.396301,855.707458 728.538513,855.263184 
	C725.222534,854.470215 721.592285,854.974854 718.093323,854.967712 
	C711.671997,854.954651 705.250671,854.963928 698.706238,854.963928 
	C698.706238,847.900635 698.706238,841.680359 698.706238,835.036194 
	C701.144226,835.036194 703.125000,835.036255 705.105774,835.036133 
	C726.103027,835.034729 747.100281,835.061279 768.097473,835.018494 
	C776.765320,835.000793 780.733826,831.180115 780.752075,822.565552 
	C780.819153,790.903198 780.820435,759.240540 780.747192,727.578247 
	C780.728149,719.373657 776.620361,715.344116 768.364624,715.251770 
	C758.200623,715.138062 748.034302,715.227295 737.869019,715.219604 
	C734.097290,715.216736 730.323975,715.890930 730.240356,720.449951 
	C730.155762,725.058472 733.861389,725.799866 737.683167,725.789124 
	C746.681946,725.763855 755.685486,725.956360 764.677490,725.709534 
	C768.722717,725.598511 770.284241,726.734314 770.134155,731.006470 
	C769.836060,739.494873 770.047180,748.001099 770.047852,757.500000 
M698.723694,679.513977 
	C698.723816,678.847717 698.740845,678.180908 698.721436,677.515198 
	C698.543640,671.418030 698.431885,666.151428 704.580444,661.489075 
	C711.547913,656.205750 710.152771,645.203918 703.391968,639.493835 
	C696.799500,633.925903 687.052429,634.743530 681.446655,641.334778 
	C675.715149,648.073730 676.522644,658.373169 683.928223,663.355652 
	C687.641113,665.853760 688.198120,668.591370 688.190125,672.453979 
	C688.107727,712.099365 688.137695,751.744934 688.142029,791.390503 
	C688.142761,798.301636 689.613953,800.969177 693.390930,800.991821 
	C697.189331,801.014587 698.719666,798.307068 698.720764,791.449585 
	C698.726685,754.469299 698.723389,717.488953 698.723694,679.513977 
M675.570984,756.493774 
	C675.571228,751.002014 675.573059,745.510193 675.571350,740.018433 
	C675.566589,724.375244 675.678162,708.730896 675.517456,693.089294 
	C675.388916,680.575500 668.666443,674.092957 656.222107,674.026367 
	C655.223633,674.020996 654.219727,673.957520 653.227600,674.036621 
	C649.410522,674.341370 646.655823,673.600708 644.091614,669.903015 
	C638.774475,662.235840 627.999207,661.754089 621.280334,668.123779 
	C614.456482,674.592957 614.596741,684.845459 621.594666,691.103333 
	C628.502319,697.280518 638.911804,696.276733 644.541321,688.890686 
	C647.278076,685.299988 655.525146,683.397034 660.574280,685.349854 
	C665.373108,687.205872 664.961548,691.442810 664.959534,695.474121 
	C664.947205,720.103821 664.982666,744.733582 664.927734,769.363159 
	C664.919312,773.134460 665.774353,776.247864 670.130127,776.319458 
	C674.541748,776.391968 675.499390,773.136292 675.536072,769.471619 
	C675.576050,765.477966 675.561096,761.483826 675.570984,756.493774 
M710.924438,737.500000 
	C710.924438,741.665771 710.918030,745.831604 710.925842,749.997375 
	C710.939209,757.162170 710.872864,764.328735 711.019470,771.490906 
	C711.086853,774.784058 713.141174,777.337341 716.304565,776.685791 
	C718.251160,776.284851 720.173218,773.682983 721.211304,771.619202 
	C722.022827,770.005737 721.497375,767.699768 721.498291,765.701538 
	C721.509583,741.873291 721.429993,718.044495 721.622192,694.217773 
	C721.642944,691.636230 722.504395,688.353577 724.219238,686.641296 
	C727.767639,683.097961 738.720215,684.983215 741.857056,689.075195 
	C746.033691,694.523315 752.971497,696.734131 759.262878,694.621643 
	C765.556641,692.508362 769.974976,686.433044 770.015076,679.837097 
	C770.056641,672.999390 765.651245,666.972107 758.999329,664.765808 
	C752.695374,662.674866 745.542847,664.768738 741.822876,670.552185 
	C739.894775,673.549744 737.766052,674.550903 734.493042,674.250000 
	C732.675720,674.082886 730.829041,674.189636 728.997131,674.234741 
	C717.790955,674.510803 711.004395,681.312927 710.948669,692.509521 
	C710.875610,707.172729 710.926697,721.836487 710.924438,737.500000 
z"/>
<path fill="#C4E9C5" opacity="1.000000" stroke="none" 
	d="
M913.391235,1167.508789 
	C988.869690,1132.101807 1050.130493,1080.367188 1097.739258,1012.437317 
	C1115.183472,987.547302 1129.838745,961.082031 1141.960449,933.213013 
	C1144.935547,926.373291 1145.018921,926.312500 1152.718872,927.981140 
	C1088.994263,1091.935791 908.623352,1235.793213 680.341919,1216.651367 
	C441.144409,1196.594116 254.634232,997.164612 252.393661,754.818542 
	C250.229904,520.782532 420.434418,322.998413 647.969482,288.332764 
	C888.868469,251.631088 1084.047363,398.328369 1152.791260,572.862976 
	C1145.572632,574.839783 1144.991699,574.436829 1142.002686,567.956177 
	C1075.587402,423.954529 965.744568,332.227905 810.138062,300.482697 
	C673.372375,272.581177 547.832214,303.203735 437.438904,388.824951 
	C346.766113,459.150940 289.111267,551.727539 269.315704,664.916077 
	C240.246902,831.128174 288.108582,973.740662 410.805115,1089.616699 
	C477.159149,1152.282104 557.071350,1189.682373 647.328247,1204.044067 
	C739.487793,1218.708618 828.116028,1206.360352 913.391235,1167.508789 
z"/>
<path fill="#C7ECC6" opacity="1.000000" stroke="none" 
	d="
M931.820557,712.001709 
	C931.820557,718.807129 931.820557,725.113342 931.820557,732.004272 
	C953.206116,732.004272 974.253845,732.004272 995.613281,732.004272 
	C995.613281,744.827637 995.613281,757.067566 995.613281,769.721741 
	C994.217529,769.826477 992.787415,770.025757 991.357056,770.027222 
	C971.867432,770.047852 952.377380,770.105774 932.888916,769.956543 
	C930.546692,769.938660 927.953491,769.213806 925.919739,768.045410 
	C915.677490,762.160645 905.637207,755.924438 895.396362,750.037109 
	C892.856934,748.577209 892.060608,746.914307 892.075989,744.088196 
	C892.185547,723.932922 892.192627,703.776306 892.069641,683.621216 
	C892.052063,680.737671 893.011353,679.142334 895.470276,677.697754 
	C905.799377,671.629456 915.980103,665.309082 926.276245,659.183594 
	C927.787903,658.284363 929.626892,657.422485 931.317993,657.415527 
	C952.304138,657.328857 973.291016,657.402466 994.277588,657.450867 
	C994.584473,657.451538 994.890747,657.656555 995.562866,657.897095 
	C995.562866,670.159058 995.562866,682.547852 995.562866,695.560364 
	C974.530518,695.560364 953.474670,695.560364 931.820557,695.560364 
	C931.820557,701.279480 931.820557,706.390991 931.820557,712.001709 
z"/>
<path fill="#C7EDC6" opacity="1.000000" stroke="none" 
	d="
M1308.999756,695.670349 
	C1299.201172,695.670349 1289.902832,695.670349 1280.300049,695.670349 
	C1280.300049,707.821655 1280.300049,719.575195 1280.300049,731.905518 
	C1301.258423,731.905518 1322.294434,731.905518 1343.693970,731.905518 
	C1343.693970,744.835205 1343.693970,757.193604 1343.693970,770.041077 
	C1335.945557,770.041077 1328.329834,770.041138 1320.714111,770.041138 
	C1307.557983,770.041016 1294.400635,770.130798 1281.246826,769.957153 
	C1278.895996,769.926147 1276.290771,769.272034 1274.261597,768.106995 
	C1264.019775,762.226562 1253.848877,756.209900 1243.865234,749.904907 
	C1242.178833,748.839905 1240.572998,746.143494 1240.549683,744.181519 
	C1240.308838,724.033813 1240.470703,703.881775 1240.329834,683.732239 
	C1240.307983,680.609497 1241.495972,678.984131 1244.060425,677.476868 
	C1254.242310,671.492249 1264.272583,665.250183 1274.435913,659.233154 
	C1276.074829,658.262878 1278.100220,657.425537 1279.952271,657.415039 
	C1300.601440,657.297241 1321.251709,657.352051 1341.901611,657.376221 
	C1342.378662,657.376770 1342.855347,657.563171 1343.689941,657.737610 
	C1343.689941,670.122620 1343.689941,682.514709 1343.689941,695.670349 
	C1332.345215,695.670349 1320.922485,695.670349 1308.999756,695.670349 
z"/>
<path fill="#C8EDC6" opacity="1.000000" stroke="none" 
	d="
M1024.015137,806.996155 
	C1040.977539,806.996155 1057.443237,806.996155 1074.277832,806.996155 
	C1074.277832,794.597351 1074.277832,782.574219 1074.277832,770.151978 
	C1053.122437,770.151978 1032.181641,770.151978 1010.832214,770.151978 
	C1010.832214,757.399170 1010.832214,745.039734 1010.832214,732.125977 
	C1015.121399,732.125977 1019.236206,732.125916 1023.350952,732.125916 
	C1040.007324,732.125977 1056.664307,732.051331 1073.319092,732.211060 
	C1075.671509,732.233582 1078.265015,732.953125 1080.317017,734.111511 
	C1090.891846,740.080444 1101.271362,746.395203 1111.847778,752.361084 
	C1114.551025,753.885925 1115.427124,755.655334 1115.408081,758.676025 
	C1115.284058,778.329712 1115.271851,797.985046 1115.418457,817.638428 
	C1115.441650,820.759399 1114.324219,822.381409 1111.693848,823.850769 
	C1101.237793,829.691711 1090.937988,835.811951 1080.499146,841.684387 
	C1078.690063,842.702087 1076.491821,843.565247 1074.467041,843.578857 
	C1054.480469,843.712891 1034.492554,843.654785 1014.505066,843.637024 
	C1013.861267,843.636414 1013.217590,843.484680 1012.210815,843.357544 
	C1012.210815,831.366638 1012.210815,819.489624 1012.210815,806.996155 
	C1015.965393,806.996155 1019.741882,806.996155 1024.015137,806.996155 
z"/>
<path fill="#C8EDC6" opacity="1.000000" stroke="none" 
	d="
M1417.865601,843.667358 
	C1398.437256,843.667358 1379.489380,843.667358 1360.269409,843.667358 
	C1360.269409,831.255493 1360.269409,819.367676 1360.269409,807.063354 
	C1381.054565,807.063354 1401.637329,807.063354 1422.553223,807.063354 
	C1422.553223,794.740173 1422.553223,782.824097 1422.553223,770.345215 
	C1401.639282,770.345215 1380.590576,770.345215 1359.156006,770.345215 
	C1359.156006,757.416199 1359.156006,745.041748 1359.156006,732.125366 
	C1363.006226,732.125366 1366.781372,732.125366 1370.556641,732.125366 
	C1387.545166,732.125427 1404.534058,732.066162 1421.521484,732.197998 
	C1423.729492,732.215088 1426.188599,732.760132 1428.091064,733.837708 
	C1438.946411,739.986511 1449.617920,746.459961 1460.472900,752.609375 
	C1463.044067,754.065857 1463.781616,755.794556 1463.767578,758.591919 
	C1463.668823,778.244751 1463.643677,797.898926 1463.787964,817.551147 
	C1463.810913,820.678589 1462.660645,822.320068 1460.043457,823.779053 
	C1450.454590,829.124390 1440.887695,834.523865 1431.512817,840.232056 
	C1427.356201,842.763062 1423.192383,844.264038 1417.865601,843.667358 
z"/>
<path fill="#2E7788" opacity="1.000000" stroke="none" 
	d="
M834.751648,877.218750 
	C834.223450,874.408752 834.064331,871.580261 834.063904,868.751770 
	C834.050598,785.120178 834.054016,701.488525 834.051514,617.856934 
	C834.051270,609.888000 834.041565,609.877686 826.106506,609.877441 
	C742.308289,609.874878 658.510132,609.876648 574.711914,609.872131 
	C572.046814,609.872009 569.381653,609.818176 566.233093,609.724609 
	C565.901550,606.504883 566.153870,603.350647 566.175720,600.194885 
	C566.195618,597.316345 567.336060,595.803284 570.348083,595.960449 
	C571.510803,596.021179 572.680115,595.949890 573.846375,595.949890 
	C662.654297,595.948853 751.462158,595.947998 840.270081,595.950684 
	C847.984375,595.950867 847.996887,595.962036 847.997192,603.592834 
	C848.000244,691.900879 847.999695,780.208984 847.998535,868.517029 
	C847.998413,877.064392 847.993469,877.060730 839.691467,877.107666 
	C838.192383,877.116089 836.693604,877.168274 834.751648,877.218750 
z"/>
<path fill="#C6EBC6" opacity="1.000000" stroke="none" 
	d="
M1087.021362,663.070801 
	C1095.665161,668.113647 1104.026367,672.917725 1112.252808,677.942200 
	C1113.588867,678.758179 1115.183960,680.536011 1115.208130,681.895081 
	C1115.409790,693.205872 1115.277588,704.522766 1115.210693,715.837585 
	C1115.208008,716.297180 1114.852051,716.754700 1114.566528,717.438721 
	C1101.550537,717.438721 1088.468994,717.438721 1074.829468,717.438721 
	C1074.829468,710.328979 1074.829468,703.397217 1074.829468,695.827026 
	C1053.248535,695.827026 1032.209717,695.827026 1010.795105,695.827026 
	C1010.795105,682.813965 1010.795105,670.439880 1010.795105,657.573608 
	C1012.700378,657.486145 1014.466980,657.336426 1016.233704,657.334534 
	C1032.877441,657.316589 1049.528320,657.607910 1066.161865,657.196777 
	C1073.783447,657.008362 1080.641357,658.138123 1087.021362,663.070801 
z"/>
<path fill="#C6EBC6" opacity="1.000000" stroke="none" 
	d="
M1405.998291,695.676147 
	C1390.181885,695.676147 1374.865234,695.676147 1359.156738,695.676147 
	C1359.156738,682.773926 1359.156738,670.224304 1359.156738,657.323792 
	C1377.036377,657.323792 1394.531982,657.717773 1411.997559,657.163147 
	C1421.199585,656.870911 1429.187378,658.640198 1436.841797,663.866760 
	C1444.246704,668.922852 1452.220215,673.166443 1460.073608,677.533447 
	C1462.727661,679.009277 1463.848999,680.672668 1463.796021,683.789734 
	C1463.609253,694.774109 1463.723389,705.763672 1463.723389,717.212280 
	C1450.049194,717.212280 1436.694458,717.212280 1422.836548,717.212280 
	C1422.836548,710.124634 1422.836548,703.197205 1422.836548,695.676208 
	C1417.064331,695.676208 1411.781250,695.676208 1405.998291,695.676147 
z"/>
<path fill="#C7EDC6" opacity="1.000000" stroke="none" 
	d="
M1277.394409,784.743042 
	C1280.491943,784.379028 1281.273315,785.639404 1281.220337,788.173218 
	C1281.092285,794.304016 1281.178711,800.439392 1281.178711,806.928589 
	C1302.183472,806.928589 1322.775513,806.928589 1343.713135,806.928589 
	C1343.713135,819.173950 1343.713135,831.064331 1343.713135,843.668884 
	C1342.136963,843.668884 1340.533203,843.668823 1338.929565,843.668823 
	C1320.125732,843.668640 1301.321167,843.742188 1282.518677,843.580566 
	C1280.006104,843.558960 1277.234985,842.829102 1275.042358,841.605408 
	C1264.594360,835.774414 1254.254028,829.743652 1244.012817,823.556641 
	C1242.443726,822.608704 1240.609985,820.500244 1240.566406,818.883423 
	C1240.265747,807.753357 1240.408325,796.611328 1240.408325,784.741760 
	C1252.787354,784.741760 1264.872192,784.741760 1277.394409,784.743042 
z"/>
<path fill="#C7EDC6" opacity="1.000000" stroke="none" 
	d="
M929.540100,784.747314 
	C932.960754,784.369934 933.072998,786.193970 933.039490,788.426514 
	C932.949890,794.397766 933.009033,800.371277 933.009033,806.928223 
	C954.022949,806.928223 974.730469,806.928223 995.679321,806.928223 
	C995.679321,819.282043 995.679321,831.050903 995.679321,843.416199 
	C993.924316,843.500183 992.165955,843.655762 990.407471,843.657410 
	C971.750183,843.675110 953.092224,843.740295 934.436279,843.583618 
	C931.910706,843.562378 929.116089,842.894531 926.921814,841.672180 
	C916.458374,835.842773 906.204285,829.638794 895.770142,823.755127 
	C893.161194,822.283997 892.002075,820.666138 892.060242,817.549683 
	C892.258728,806.902100 892.136230,796.248657 892.136230,784.743530 
	C904.607544,784.743530 916.845337,784.743530 929.540100,784.747314 
z"/>
<path fill="#C7ECC6" opacity="1.000000" stroke="none" 
	d="
M1147.085938,839.675293 
	C1147.085083,826.060120 1147.085083,812.911255 1147.085083,799.360718 
	C1162.032959,799.360718 1176.721069,799.360718 1191.666382,799.360718 
	C1191.666382,813.930969 1191.666382,828.370056 1191.666382,843.213867 
	C1190.425293,843.364502 1189.163330,843.647339 1187.900757,843.650818 
	C1175.736206,843.684631 1163.571411,843.643982 1151.407104,843.693909 
	C1148.870972,843.704346 1146.573853,843.708374 1147.085938,839.675293 
z"/>
<path fill="#2C2D84" opacity="1.000000" stroke="none" 
	d="
M770.047852,757.000000 
	C770.047180,748.001099 769.836060,739.494873 770.134155,731.006470 
	C770.284241,726.734314 768.722717,725.598511 764.677490,725.709534 
	C755.685486,725.956360 746.681946,725.763855 737.683167,725.789124 
	C733.861389,725.799866 730.155762,725.058472 730.240356,720.449951 
	C730.323975,715.890930 734.097290,715.216736 737.869019,715.219604 
	C748.034302,715.227295 758.200623,715.138062 768.364624,715.251770 
	C776.620361,715.344116 780.728149,719.373657 780.747192,727.578247 
	C780.820435,759.240540 780.819153,790.903198 780.752075,822.565552 
	C780.733826,831.180115 776.765320,835.000793 768.097473,835.018494 
	C747.100281,835.061279 726.103027,835.034729 705.105774,835.036133 
	C703.125000,835.036255 701.144226,835.036194 698.706238,835.036194 
	C698.706238,841.680359 698.706238,847.900635 698.706238,854.963928 
	C705.250671,854.963928 711.671997,854.954651 718.093323,854.967712 
	C721.592285,854.974854 725.222534,854.470215 728.538513,855.263184 
	C730.396301,855.707458 732.935303,858.306396 732.967041,859.976318 
	C732.998779,861.646484 730.443176,863.557678 728.706177,864.976868 
	C727.989685,865.562317 726.449707,865.170776 725.284302,865.171143 
	C703.787109,865.177307 682.289978,865.175781 660.792786,865.174500 
	C660.126282,865.174438 659.459778,865.161804 658.793335,865.150513 
	C655.531189,865.095459 653.114319,863.750427 653.103027,860.250000 
	C653.091125,856.543823 655.585327,855.015747 659.047302,854.994019 
	C666.379395,854.947937 673.711914,854.969482 681.044250,854.964050 
	C683.032349,854.962585 685.020447,854.963867 687.501831,854.963867 
	C687.501831,848.425598 687.501831,842.205688 687.501831,835.321655 
	C685.740417,835.231995 683.820801,835.051086 681.901001,835.049133 
	C660.903748,835.028015 639.906555,835.053894 618.909302,835.025269 
	C609.537659,835.012451 605.979492,831.415466 605.973450,821.955261 
	C605.953674,790.792725 605.953918,759.630127 605.973816,728.467590 
	C605.979858,719.069092 609.607910,715.313110 618.856384,715.238159 
	C628.854431,715.157166 638.853638,715.221436 648.852295,715.222534 
	C652.622009,715.222961 656.381409,715.856506 656.327759,720.532776 
	C656.274841,725.153625 652.541382,725.789429 648.760132,725.784302 
	C639.428040,725.771606 630.094177,725.892334 620.764771,725.734680 
	C617.337952,725.676819 616.103210,726.818359 616.115112,730.326233 
	C616.216858,760.321960 616.199463,790.318176 616.135376,820.314087 
	C616.128845,823.368469 616.917969,824.864868 620.331482,824.859497 
	C669.158142,824.782837 717.984985,824.801086 766.811768,824.779053 
	C767.615845,824.778748 768.419739,824.561462 770.047852,824.326477 
	C770.047852,802.002136 770.047852,779.751038 770.047852,757.000000 
z"/>
<path fill="#2C3184" opacity="1.000000" stroke="none" 
	d="
M698.723450,680.011353 
	C698.723389,717.488953 698.726685,754.469299 698.720764,791.449585 
	C698.719666,798.307068 697.189331,801.014587 693.390930,800.991821 
	C689.613953,800.969177 688.142761,798.301636 688.142029,791.390503 
	C688.137695,751.744934 688.107727,712.099365 688.190125,672.453979 
	C688.198120,668.591370 687.641113,665.853760 683.928223,663.355652 
	C676.522644,658.373169 675.715149,648.073730 681.446655,641.334778 
	C687.052429,634.743530 696.799500,633.925903 703.391968,639.493835 
	C710.152771,645.203918 711.547913,656.205750 704.580444,661.489075 
	C698.431885,666.151428 698.543640,671.418030 698.721436,677.515198 
	C698.740845,678.180908 698.723816,678.847717 698.723450,680.011353 
M693.460144,646.176941 
	C691.689148,647.829773 689.421448,649.229492 688.387451,651.257996 
	C687.963928,652.088928 690.053101,655.430603 691.269104,655.591553 
	C693.315002,655.862366 696.637085,655.156433 697.531067,653.700317 
	C699.525024,650.452209 697.771240,647.696960 693.460144,646.176941 
z"/>
<path fill="#2C2C84" opacity="1.000000" stroke="none" 
	d="
M675.570557,756.991821 
	C675.561096,761.483826 675.576050,765.477966 675.536072,769.471619 
	C675.499390,773.136292 674.541748,776.391968 670.130127,776.319458 
	C665.774353,776.247864 664.919312,773.134460 664.927734,769.363159 
	C664.982666,744.733582 664.947205,720.103821 664.959534,695.474121 
	C664.961548,691.442810 665.373108,687.205872 660.574280,685.349854 
	C655.525146,683.397034 647.278076,685.299988 644.541321,688.890686 
	C638.911804,696.276733 628.502319,697.280518 621.594666,691.103333 
	C614.596741,684.845459 614.456482,674.592957 621.280334,668.123779 
	C627.999207,661.754089 638.774475,662.235840 644.091614,669.903015 
	C646.655823,673.600708 649.410522,674.341370 653.227600,674.036621 
	C654.219727,673.957520 655.223633,674.020996 656.222107,674.026367 
	C668.666443,674.092957 675.388916,680.575500 675.517456,693.089294 
	C675.678162,708.730896 675.566589,724.375244 675.571350,740.018433 
	C675.573059,745.510193 675.571228,751.002014 675.570557,756.991821 
M628.345215,676.152222 
	C628.391357,678.556213 627.907776,681.168396 628.732605,683.266296 
	C629.084595,684.161743 632.645630,684.804504 633.886719,684.081970 
	C635.385498,683.209351 636.744263,680.784729 636.787476,678.998535 
	C636.875732,675.352661 633.705139,674.187256 628.345215,676.152222 
z"/>
<path fill="#2C2C84" opacity="1.000000" stroke="none" 
	d="
M710.924438,737.000000 
	C710.926697,721.836487 710.875610,707.172729 710.948669,692.509521 
	C711.004395,681.312927 717.790955,674.510803 728.997131,674.234741 
	C730.829041,674.189636 732.675720,674.082886 734.493042,674.250000 
	C737.766052,674.550903 739.894775,673.549744 741.822876,670.552185 
	C745.542847,664.768738 752.695374,662.674866 758.999329,664.765808 
	C765.651245,666.972107 770.056641,672.999390 770.015076,679.837097 
	C769.974976,686.433044 765.556641,692.508362 759.262878,694.621643 
	C752.971497,696.734131 746.033691,694.523315 741.857056,689.075195 
	C738.720215,684.983215 727.767639,683.097961 724.219238,686.641296 
	C722.504395,688.353577 721.642944,691.636230 721.622192,694.217773 
	C721.429993,718.044495 721.509583,741.873291 721.498291,765.701538 
	C721.497375,767.699768 722.022827,770.005737 721.211304,771.619202 
	C720.173218,773.682983 718.251160,776.284851 716.304565,776.685791 
	C713.141174,777.337341 711.086853,774.784058 711.019470,771.490906 
	C710.872864,764.328735 710.939209,757.162170 710.925842,749.997375 
	C710.918030,745.831604 710.924438,741.665771 710.924438,737.000000 
M751.017761,683.530884 
	C754.533081,685.783081 757.696411,685.327942 758.926636,681.265564 
	C759.432678,679.594482 758.209778,676.709656 756.814514,675.392944 
	C755.867126,674.498901 752.819580,674.712341 751.472778,675.593933 
	C748.727051,677.391418 748.538025,680.216614 751.017761,683.530884 
z"/>
<path fill="#31C38D" opacity="1.000000" stroke="none" 
	d="
M693.838623,646.238525 
	C697.771240,647.696960 699.525024,650.452209 697.531067,653.700317 
	C696.637085,655.156433 693.315002,655.862366 691.269104,655.591553 
	C690.053101,655.430603 687.963928,652.088928 688.387451,651.257996 
	C689.421448,649.229492 691.689148,647.829773 693.838623,646.238525 
z"/>
<path fill="#31C38D" opacity="1.000000" stroke="none" 
	d="
M628.632874,675.914246 
	C633.705139,674.187256 636.875732,675.352661 636.787476,678.998535 
	C636.744263,680.784729 635.385498,683.209351 633.886719,684.081970 
	C632.645630,684.804504 629.084595,684.161743 628.732605,683.266296 
	C627.907776,681.168396 628.391357,678.556213 628.632874,675.914246 
z"/>
<path fill="#31C38D" opacity="1.000000" stroke="none" 
	d="
M750.753784,683.263672 
	C748.538025,680.216614 748.727051,677.391418 751.472778,675.593933 
	C752.819580,674.712341 755.867126,674.498901 756.814514,675.392944 
	C758.209778,676.709656 759.432678,679.594482 758.926636,681.265564 
	C757.696411,685.327942 754.533081,685.783081 750.753784,683.263672 
z"/>
</svg>